<svg width="95" height="26" viewBox="0 0 95 26" fill="none" xmlns="http://www.w3.org/2000/svg">
<path d="M87.4822 13.8958V9.23115L92.1579 14.726C92.4638 15.0756 92.8571 15.2504 93.3815 15.2504C93.7747 15.2504 94.0806 15.1193 94.3428 14.9008C94.6924 14.595 94.8672 14.2891 94.9109 13.8958C94.9546 13.4151 94.8235 13.0655 94.5613 12.8034L90.2353 7.73445L94.5613 2.62185C94.8235 2.35966 94.9546 2.01008 94.9109 1.52941C94.9109 1.13613 94.6924 0.786554 94.3428 0.524369C94.0806 0.262184 93.731 0.174789 93.3815 0.174789C92.8571 0.174789 92.4638 0.349579 92.1579 0.699159L87.4822 6.15993V1.44201C87.4822 1.04874 87.3074 0.699156 87.0015 0.393274C86.6082 0.0873913 86.2586 -0.0437012 85.8653 -0.0437012C85.4721 -0.0437012 85.1225 0.0873913 84.7729 0.393274C84.467 0.742853 84.3359 1.09243 84.3359 1.48571V13.8521C84.3359 14.2891 84.467 14.6387 84.7729 14.9445C85.0788 15.2504 85.4284 15.4252 85.8653 15.4252C86.3023 15.4252 86.6956 15.2504 87.0015 14.9445C87.3074 14.6823 87.4822 14.3328 87.4822 13.8958Z" fill="#4D7DCB"/>
<path d="M23.6405 0.0437012C24.3834 0.0437012 24.8641 0.349584 25.1262 1.04874L29.8456 13.3714C30.0204 13.8084 29.9767 14.158 29.8019 14.5513C29.6271 14.9445 29.3212 15.2067 28.9279 15.3378C28.7094 15.4689 28.3162 15.4689 27.7481 15.2941C27.3548 15.1193 27.0926 14.8134 26.9178 14.4202L23.6405 5.81177L20.3195 14.4202C20.1447 14.8571 19.8825 15.1193 19.4893 15.2941C18.9212 15.4689 18.5279 15.4689 18.3094 15.3378C17.9162 15.2067 17.6103 14.9445 17.4355 14.5513C17.2607 14.158 17.2607 13.7647 17.3918 13.3714L22.1111 1.04874C22.3733 0.349584 22.854 0.0437012 23.5968 0.0437012H23.6405Z" fill="#4D7DCB"/>
<path d="M75.5531 20.9748H93.6876C94.3867 20.9748 94.9111 21.4992 94.9111 22.1546C94.9111 22.8538 94.343 23.3782 93.6876 23.3782H75.5531C74.854 23.3782 74.3296 22.8538 74.3296 22.1546C74.3296 21.5429 74.854 20.9748 75.5531 20.9748Z" fill="#4D7DCB"/>
<path d="M19.358 21.0185H1.22353C0.52437 21.0185 0 21.5428 0 22.1983C0 22.8975 0.52437 23.4218 1.22353 23.4218H19.358C20.0134 23.4218 20.5815 22.8975 20.5815 22.1983C20.5815 21.5428 20.0571 21.0185 19.358 21.0185Z" fill="#4D7DCB"/>
<path d="M15.6874 13.9395C15.6874 14.3765 15.5563 14.7697 15.2504 15.0319C14.9445 15.3378 14.595 15.4689 14.1143 15.4689C13.8084 15.4689 13.5025 15.3378 13.1529 15.0319C12.8034 14.6824 12.6286 14.3328 12.6286 13.9395V7.51596C12.5849 6.33613 12.0605 5.24369 11.2303 4.45714C10.3563 3.62689 9.17647 3.10252 7.86555 3.10252C6.55462 3.10252 5.37479 3.62689 4.50084 4.45714C3.62689 5.28739 3.05882 6.51092 3.05882 7.77815C3.05882 9.08907 3.58319 10.2252 4.45714 11.0992C5.33109 11.9294 6.51092 12.4975 7.82185 12.4975C8.12772 12.4975 8.4336 12.4538 8.73948 12.4101C8.82687 12.3664 8.87059 12.3664 8.91428 12.3664L9.08908 12.3227C9.91933 12.1042 10.7496 12.5849 10.9681 13.3714C11.1866 14.158 10.7059 14.9882 9.87563 15.2067C9.85378 15.2067 9.82101 15.2176 9.77185 15.234C9.72269 15.2504 9.65714 15.2723 9.56975 15.2941C9.43865 15.3378 9.35126 15.3378 9.26387 15.3378C8.78319 15.4252 8.30252 15.4689 7.77815 15.4689C5.59328 15.4689 3.62689 14.595 2.22857 13.1966C0.87395 11.842 0 9.91932 0 7.77815C0 5.68067 0.873949 3.75798 2.27227 2.35966C3.71429 0.96134 5.68067 0.131088 7.82185 0.131088C10.0067 0.131088 11.9731 1.00504 13.3714 2.35966C14.5513 3.53949 15.3815 5.0689 15.6 6.8168C15.6437 7.12268 15.6437 7.47225 15.6437 7.77813V13.9395H15.6874Z" fill="#4D7DCB"/>
<path d="M81.9765 15.0319C82.2824 14.7697 82.4135 14.3765 82.4135 13.9395H82.3698V7.73445C82.3698 7.42856 82.3698 7.07898 82.3261 6.7731C82.1076 5.0252 81.2773 3.49579 80.0975 2.31596C78.6992 0.961337 76.7328 0.0873871 74.5479 0.0873871C72.3631 0.0873871 70.4404 0.917639 68.9983 2.31596C67.6 3.67058 66.7261 5.59327 66.7261 7.73445C66.7261 9.87562 67.6 11.7546 68.9983 13.1529C70.3967 14.5513 72.3631 15.4252 74.5479 15.4252C75.0723 15.4252 75.553 15.3815 76.0336 15.2941C76.121 15.2941 76.2084 15.2941 76.3395 15.2504C76.4269 15.2286 76.4925 15.2067 76.5416 15.1903C76.5908 15.1739 76.6236 15.163 76.6454 15.163C77.4757 14.9445 77.9563 14.1143 77.7378 13.3277C77.5193 12.5412 76.6891 12.0605 75.8589 12.279L75.6841 12.3227C75.6404 12.3227 75.5967 12.3227 75.5093 12.3664C75.2034 12.4101 74.8975 12.4538 74.5916 12.4538C73.2807 12.4538 72.1009 11.8857 71.2269 11.0555C70.353 10.1815 69.8286 9.04537 69.8286 7.73445C69.8286 6.46722 70.353 5.28739 71.2269 4.45714C72.1009 3.62688 73.2807 3.10251 74.5916 3.10251C75.9025 3.10251 77.0824 3.62688 77.9563 4.45714C78.7866 5.24369 79.311 6.33613 79.3547 7.51596V13.9395C79.3547 14.3328 79.5294 14.6823 79.879 15.0319C80.2286 15.3378 80.5345 15.4689 80.8404 15.4689C81.321 15.4689 81.6706 15.3378 81.9765 15.0319Z" fill="#4D7DCB"/>
<path d="M59.6473 5.94286L56.37 14.4639C56.1952 14.9445 55.8893 15.2941 55.4523 15.4252C55.4086 15.4252 55.4086 15.4252 55.4086 15.4689H55.3649C55.3398 15.494 55.3291 15.5047 55.3163 15.5093C55.3068 15.5126 55.2961 15.5126 55.2775 15.5126H55.2338C55.2338 15.5126 55.1902 15.5126 55.1902 15.5563H54.8406C54.7095 15.5563 54.5347 15.5126 54.3599 15.4689C53.9229 15.2941 53.617 14.9882 53.3986 14.5076L50.1212 5.98656L46.8002 14.595C46.6691 14.9882 46.407 15.2941 46.0137 15.4689C45.6204 15.6437 45.2271 15.6437 44.8338 15.5126C44.4406 15.3815 44.1347 15.1193 43.9599 14.7261C43.7851 14.3328 43.7851 13.9832 43.9162 13.5462L48.6355 1.22353C48.8977 0.524373 49.3784 0.218491 50.1212 0.218491C50.8641 0.218491 51.3448 0.524373 51.6507 1.22353L54.8843 9.74454L58.1616 1.22353C58.4238 0.524373 58.9044 0.218491 59.6473 0.218491C60.3901 0.218491 60.8708 0.524373 61.1767 1.22353L65.896 13.5462C66.0271 13.9395 66.0271 14.2891 65.8523 14.7261C65.7212 15.0756 65.4154 15.3378 65.0221 15.5126C64.8036 15.6437 64.4103 15.6437 63.8423 15.4689C63.449 15.2941 63.1868 15.0319 63.012 14.595L59.6473 5.94286Z" fill="#4D7DCB"/>
<path d="M30.5007 3.27731V1.52941C30.5007 1.09244 30.6318 0.742857 30.9377 0.436975C31.2436 0.131092 31.6369 0 32.0301 0C32.4671 0 32.8167 0.131092 33.1226 0.480672C33.4285 0.742857 33.6033 1.09244 33.6033 1.57311V9.35126H33.5596C33.5596 10.1815 33.9091 10.9681 34.5209 11.5361C35.089 12.1042 35.9192 12.4538 36.7932 12.4538C37.6671 12.4538 38.4974 12.1042 39.0654 11.5361C39.6335 10.9681 40.0268 10.1815 40.0268 9.30756C40.0268 8.43361 39.6772 7.64706 39.0654 7.07899C38.4537 6.51092 37.6671 6.16134 36.7932 6.16134H36.4436C35.6133 6.24874 34.8705 5.63697 34.7831 4.76303C34.6957 3.93277 35.3512 3.18992 36.1814 3.14622H36.7495C38.4974 3.14622 40.0705 3.84538 41.2066 4.93782C42.3427 6.07395 43.0419 7.60336 43.0419 9.30756C43.0419 11.0118 42.3427 12.5412 41.2066 13.6773C40.0705 14.7697 38.4974 15.4689 36.7495 15.4689C35.0016 15.4689 33.4285 14.7697 32.2923 13.6773C31.1562 12.5412 30.457 11.0118 30.457 9.30756V3.27731H30.5007Z" fill="#4D7DCB"/>
<path fill-rule="evenodd" clip-rule="evenodd" d="M34.3898 23.4218V25.1697C34.3898 25.4319 34.2587 25.6504 34.0402 25.7815C33.9528 25.8689 33.778 25.9126 33.6032 25.9126C33.4284 25.9126 33.2973 25.8689 33.1662 25.7815C32.9914 25.6504 32.8604 25.4319 32.8604 25.1697V19.1832C32.8604 18.7899 33.2099 18.4403 33.6469 18.4403H35.657C37.0553 18.4403 38.1914 19.5765 38.1914 20.9311C38.1914 22.2857 37.0553 23.4218 35.657 23.4218H34.3898ZM36.6183 21.0185C36.6183 20.4067 36.094 19.8824 35.4822 19.8824H34.4335V22.1546H35.4822C36.094 22.1546 36.6183 21.6303 36.6183 21.0185Z" fill="#4D7DCB"/>
<path d="M52.5245 25.2571C52.5245 25.4756 52.4371 25.6504 52.306 25.7815C52.1313 25.9126 51.9565 26 51.7817 26C51.5632 26 51.3884 25.9126 51.2136 25.7815C51.0388 25.6504 50.9951 25.4756 50.9951 25.2571V19.1395C50.9951 18.9647 51.0388 18.7899 51.2136 18.6151C51.3884 18.484 51.6069 18.3966 51.7817 18.3966C51.9565 18.3966 52.1313 18.4403 52.306 18.6151C52.4808 18.7462 52.5245 18.921 52.5245 19.1395V21.3819L54.7969 18.7025C54.9717 18.5277 55.1465 18.4403 55.4086 18.4403C55.5834 18.4403 55.7582 18.484 55.8893 18.6151C56.0641 18.7899 56.1515 18.9647 56.1515 19.1395C56.1952 19.358 56.1078 19.5328 55.9767 19.6639L53.8355 22.1546L55.9767 24.6891C56.1078 24.8202 56.1952 24.995 56.1515 25.2134C56.1515 25.3882 56.0641 25.563 55.8893 25.6941C55.7582 25.8252 55.5834 25.8689 55.4086 25.8689C55.1465 25.8689 54.928 25.7815 54.7969 25.6067L52.5245 22.9274V25.2571Z" fill="#4D7DCB"/>
<path d="M24.558 19.7949H27.879V25.2134C27.879 25.4756 28.0101 25.6941 28.2286 25.8252C28.3597 25.9126 28.4907 25.9563 28.6655 25.9563C28.8403 25.9563 28.9714 25.9126 29.1025 25.8252C29.321 25.6941 29.4084 25.4756 29.4084 25.2134V19.2269C29.4084 18.8336 29.0588 18.484 28.6218 18.484H23.7714C23.3344 18.484 22.9849 18.8336 22.9849 19.2269V25.2134C22.9849 25.4756 23.116 25.6941 23.2907 25.8252C23.4218 25.9126 23.5529 25.9563 23.7277 25.9563C23.9025 25.9563 24.0773 25.9126 24.1647 25.8252C24.3832 25.6941 24.4706 25.4756 24.4706 25.2134C24.558 23.4218 24.558 21.6302 24.558 19.7949Z" fill="#4D7DCB"/>
<path fill-rule="evenodd" clip-rule="evenodd" d="M60.827 19.4454C61.0892 18.7462 61.4824 18.3966 62.0505 18.3966C62.6186 18.3966 63.0555 18.7462 63.274 19.4454L65.1967 24.8202C65.2404 24.9513 65.2841 25.0824 65.2841 25.2571C65.2841 25.4756 65.1967 25.6504 65.0656 25.7815C64.9345 25.9563 64.7597 26 64.5413 26C64.1917 26 63.9732 25.7815 63.7984 25.3008L63.4488 24.2958H60.6522L60.3026 25.3008C60.1715 25.7815 59.9093 26 59.5597 26C59.3413 26 59.1665 25.9126 59.0354 25.7815C58.8606 25.6504 58.8169 25.4756 58.8169 25.2571C58.8169 25.1261 58.8606 24.9513 58.9043 24.8202L60.827 19.4454ZM61.0892 22.9412H63.0118L62.0505 19.8824L61.0892 22.9412Z" fill="#4D7DCB"/>
<path d="M68.5178 19.8823V25.2571C68.5178 25.5193 68.6489 25.7378 68.8237 25.8689C68.9548 25.9563 69.0859 26 69.2607 26C69.4355 26 69.6102 25.9563 69.6976 25.8689C69.9161 25.7378 70.0472 25.5193 70.0472 25.2571V19.8823H71.1833C71.4892 19.8823 71.7951 19.6639 71.8825 19.358C71.9262 19.1832 71.9262 18.9647 71.8388 18.8336C71.7077 18.6151 71.4455 18.484 71.2271 18.484H67.4254C67.1632 18.484 66.901 18.6151 66.8136 18.8336C66.7262 19.0084 66.7262 19.2269 66.7699 19.358C66.8573 19.6639 67.1195 19.8823 67.4691 19.8823H68.5178Z" fill="#4D7DCB"/>
<path fill-rule="evenodd" clip-rule="evenodd" d="M48.4603 22.1983C48.4603 24.2958 46.7124 26 44.5712 26C42.43 26 40.6821 24.2958 40.6821 22.1983C40.6821 20.1008 42.43 18.3966 44.5712 18.3966C46.7124 18.3966 48.4603 20.1008 48.4603 22.1983ZM46.8872 22.1983C46.8872 23.4218 45.8384 24.4706 44.5712 24.4706C43.2603 24.4706 42.2115 23.4218 42.2115 22.1983C42.2115 20.9748 43.304 19.926 44.5712 19.926C45.8384 19.926 46.8872 20.9311 46.8872 22.1983Z" fill="#4D7DCB"/>
</svg>
