<?xml version="1.0" encoding="utf-8"?><svg xmlns="http://www.w3.org/2000/svg" xmlns:xlink="http://www.w3.org/1999/xlink"><symbol viewBox="0 0 24 24" fill="none" id="arrow-narrow-right" xmlns="http://www.w3.org/2000/svg"><path d="M4 12h16m0 0-6-6m6 6-6 6"/></symbol><symbol viewBox="0 0 24 24" fill="none" id="check" xmlns="http://www.w3.org/2000/svg"><path d="M20 6 9 17l-5-5"/></symbol><symbol viewBox="0 0 24 24" fill="none" id="check-circle" xmlns="http://www.w3.org/2000/svg"><path d="m7.5 12 3 3 6-6m5.5 3c0 5.523-4.477 10-10 10S2 17.523 2 12 6.477 2 12 2s10 4.477 10 10Z"/></symbol><symbol viewBox="0 0 24 24" fill="none" id="chevron-down" xmlns="http://www.w3.org/2000/svg"><path d="m6 9 6 6 6-6"/></symbol><symbol viewBox="0 0 24 24" fill="none" id="chevron-left" xmlns="http://www.w3.org/2000/svg"><path d="m15 18-6-6 6-6"/></symbol><symbol viewBox="0 0 24 24" fill="none" id="chevron-right" xmlns="http://www.w3.org/2000/svg"><path d="m9 18 6-6-6-6"/></symbol><symbol viewBox="0 0 24 24" fill="none" id="chevron-up" xmlns="http://www.w3.org/2000/svg"><path d="m18 15-6-6-6 6"/></symbol><symbol viewBox="0 0 24 24" fill="none" id="key" xmlns="http://www.w3.org/2000/svg"><path d="M17 9c0-.512-.195-1.024-.586-1.414A1.994 1.994 0 0 0 15 7m0 8a6 6 0 1 0-5.946-5.193c.058.434.087.651.068.789a.853.853 0 0 1-.117.346c-.068.121-.187.24-.426.479l-5.11 5.11c-.173.173-.26.26-.322.36a1 1 0 0 0-.12.29C3 17.296 3 17.418 3 17.663V19.4c0 .56 0 .84.109 1.054a1 1 0 0 0 .437.437C3.76 21 4.04 21 4.6 21H7v-2h2v-2h2l1.58-1.58c.238-.238.357-.357.478-.425a.852.852 0 0 1 .346-.117c.138-.02.355.01.789.068.264.036.533.054.807.054Z"/></symbol><symbol viewBox="0 0 24 24" fill="none" id="marker" xmlns="http://www.w3.org/2000/svg"><path d="M12 22c1-5 8-5.582 8-12a8 8 0 1 0-16 0c0 6.418 7 7 8 12Z"/><path d="M12 13a3 3 0 1 0 0-6 3 3 0 0 0 0 6Z"/></symbol><symbol viewBox="0 0 24 24" fill="none" id="maximize" xmlns="http://www.w3.org/2000/svg"><path d="m14 10 7-7m0 0h-6m6 0v6m-11 5-7 7m0 0h6m-6 0v-6"/></symbol><symbol viewBox="0 0 24 24" fill="none" id="navigation-pointer" xmlns="http://www.w3.org/2000/svg"><path d="M3.413 10.745c-.595-.232-.893-.348-.98-.515a.5.5 0 0 1 0-.461c.087-.167.385-.283.98-.515L20.3 2.664c.537-.21.806-.315.978-.258a.5.5 0 0 1 .316.316c.057.172-.048.44-.258.977l-6.59 16.888c-.232.595-.348.893-.515.98a.5.5 0 0 1-.462 0c-.167-.088-.282-.385-.514-.98l-2.628-6.759a1.075 1.075 0 0 0-.107-.232.5.5 0 0 0-.116-.117c-.051-.036-.112-.06-.232-.106l-6.759-2.628Z"/></symbol><symbol viewBox="0 0 24 24" fill="none" id="percent" xmlns="http://www.w3.org/2000/svg"><path d="M19 5 5 19M7.5 6.5a1 1 0 1 1-2 0 1 1 0 0 1 2 0Zm11 11a1 1 0 1 1-2 0 1 1 0 0 1 2 0Z"/></symbol><symbol viewBox="0 0 24 24" fill="none" id="phone" xmlns="http://www.w3.org/2000/svg"><path d="M8.38 8.853a14.603 14.603 0 0 0 2.847 4.01 14.603 14.603 0 0 0 4.01 2.847c.124.06.187.09.265.112.28.082.625.023.862-.147.067-.048.124-.105.239-.219.35-.35.524-.524.7-.639a2 2 0 0 1 2.18 0c.176.115.35.29.7.64l.195.194c.532.531.797.797.942 1.082a2 2 0 0 1 0 1.806c-.145.285-.41.551-.942 1.082l-.157.158c-.53.53-.795.794-1.155.997-.4.224-1.02.386-1.478.384-.413-.001-.695-.081-1.26-.241a19.038 19.038 0 0 1-8.283-4.874A19.039 19.039 0 0 1 3.17 7.761c-.16-.564-.24-.846-.241-1.26a3.377 3.377 0 0 1 .384-1.477c.202-.36.467-.625.997-1.155l.157-.158c.532-.53.798-.797 1.083-.941a2 2 0 0 1 1.805 0c.286.144.551.41 1.083.942l.195.194c.35.35.524.525.638.7a2 2 0 0 1 0 2.18c-.114.177-.289.352-.638.701-.115.114-.172.172-.22.238-.17.238-.228.582-.147.862.023.08.053.142.113.266Z"/></symbol><symbol viewBox="0 0 24 24" fill="none" id="refresh" xmlns="http://www.w3.org/2000/svg"><path d="M14 2s.85.121 4.364 3.636A9 9 0 0 1 14 20.776M14 2h6m-6 0v6m-4 14s-.85-.122-4.364-3.636A9 9 0 0 1 10 3.224M10 22H4m6 0v-6"/></symbol><symbol viewBox="0 0 24 24" fill="none" id="route" xmlns="http://www.w3.org/2000/svg"><path d="M11.5 5h.434c3.048 0 4.571 0 5.15.547a2 2 0 0 1 .586 1.845c-.156.781-1.4 1.66-3.888 3.42l-4.064 2.876c-2.488 1.76-3.732 2.639-3.888 3.42a2 2 0 0 0 .586 1.845c.579.547 2.102.547 5.15.547h.934M8 5a3 3 0 1 1-6 0 3 3 0 0 1 6 0Zm14 14a3 3 0 1 1-6 0 3 3 0 0 1 6 0Z"/></symbol><symbol viewBox="0 0 24 24" fill="none" id="search" xmlns="http://www.w3.org/2000/svg"><path d="m21 21-4.35-4.35M19 11a8 8 0 1 1-16 0 8 8 0 0 1 16 0Z"/></symbol><symbol viewBox="0 0 24 24" fill="none" id="star" xmlns="http://www.w3.org/2000/svg"><path d="M10.425 2.82a1.289 1.289 0 0 1 2.189 0l2.515 4.046c.178.285.46.49.786.57l4.624 1.142a1.289 1.289 0 0 1 .676 2.082l-3.07 3.642a1.289 1.289 0 0 0-.3.924l.343 4.75a1.289 1.289 0 0 1-1.77 1.287l-4.413-1.794a1.289 1.289 0 0 0-.971 0l-4.412 1.794a1.289 1.289 0 0 1-1.771-1.287l.343-4.75a1.289 1.289 0 0 0-.3-.924l-3.07-3.642A1.289 1.289 0 0 1 2.5 8.578l4.624-1.142c.327-.08.609-.285.786-.57l2.515-4.045Z" fill="#FFC42B"/></symbol><symbol viewBox="0 0 24 24" fill="none" id="tools" xmlns="http://www.w3.org/2000/svg"><path d="m6 6 4.5 4.5M6 6H3L2 3l1-1 3 1v3Zm13.259-3.259-2.628 2.628c-.396.396-.594.594-.668.822a1 1 0 0 0 0 .618c.074.228.272.426.668.822l.238.238c.396.396.594.594.822.668a1 1 0 0 0 .618 0c.228-.074.426-.272.822-.668L21.59 5.41a5.5 5.5 0 0 1-6.16 7.485c-.485-.096-.729-.144-.876-.13a.836.836 0 0 0-.373.114c-.13.07-.261.201-.523.463L6.5 20.5a2.121 2.121 0 0 1-3-3l7.157-7.157c.262-.262.393-.393.463-.524a.836.836 0 0 0 .113-.372c.015-.148-.033-.39-.129-.877a5.5 5.5 0 0 1 8.155-5.83ZM12 15l5.5 5.5a2.121 2.121 0 0 0 3-3l-4.525-4.525a5.475 5.475 0 0 1-.934-.17c-.39-.107-.816-.03-1.101.255L12 15Z"/></symbol><symbol viewBox="0 0 24 24" fill="none" id="user" xmlns="http://www.w3.org/2000/svg"><path d="M20 21c0-1.396 0-2.093-.172-2.661a4 4 0 0 0-2.667-2.667c-.568-.172-1.265-.172-2.661-.172h-5c-1.396 0-2.093 0-2.661.172a4 4 0 0 0-2.667 2.667C4 18.907 4 19.604 4 21M16.5 7.5a4.5 4.5 0 1 1-9 0 4.5 4.5 0 0 1 9 0Z"/></symbol><symbol fill="none" viewBox="0 0 24 24" id="yandex" xmlns="http://www.w3.org/2000/svg"><g clip-path="url(#ta)"><path fill-rule="evenodd" clip-rule="evenodd" d="M16.384 22.583A11.455 11.455 0 1 1 7.617 1.416a11.455 11.455 0 0 1 8.767 21.167Zm-.091-3.421H13.8l-.006-.006h-.005V6.774H12.67c-2.046 0-3.12 1.031-3.12 2.553 0 1.735.747 2.531 2.274 3.567l1.266.84-3.633 5.422h-2.71l3.266-4.843c-1.876-1.337-2.929-2.651-2.929-4.844 0-2.76 1.92-4.636 5.575-4.636h3.633v14.329Z" fill="#FC3F1D"/></g><defs><clipPath id="ta"><path fill="#fff" d="M0 0h24v24H0z"/></clipPath></defs></symbol></svg>